<svg height="32" viewBox="0 0 228 32" width="228" xmlns="http://www.w3.org/2000/svg" xmlns:xlink="http://www.w3.org/1999/xlink"><mask id="a" fill="#fff"><path d="m0 0h227.852308v31.68h-227.852308z" fill="#fff" fill-rule="evenodd"/></mask><path d="m93.0563295 28.97902c5.3989148-2.7721465 7.2882445-10.8918315 4.219641-18.134912-3.0669424-7.24391772-9.9299837-10.87006286-15.3288985-8.09791634-5.3989148 2.77130926-7.2865833 10.89099424-4.219641 18.13407474 3.0677729 7.2439178 9.9316447 10.8709002 15.3288985 8.0987536zm-67.4785452-20.97487602-3.0113005 9.42747502c-.1096227.7166891.1660949.6329637.9392667.6329637l5.080843-.0008373c1.0970568.0309784-.293988-2.5603213-1.1460548-5.2453935-.9442495-2.5795782-1.8627544-4.81420792-1.8627544-4.81420792zm20.1398373-6.49792484c-.9633504 0-2.0504415.12223902-2.0537634 1.04489244l-.0365462 11.65624402c-.0016557.6798499.3878369.9285142 1.068826.9285142.4426429 0 1.7689107.0159078 2.2115536 0 3.3335247-.1925684 5.0567593-3.358224 5.0567593-6.43847987 0-4.17370897-2.6292823-7.19117079-6.2468293-7.19117079zm166.0326154-.51742269c-2.355225 0-2.204909 1.35048998-2.207401 4.27334214l-.019931 20.53782971c-.103809 3.0333696 1.042245 4.4073027 2.227332 4.4073027 1.707456 0 2.037985-1.8319108 2.039646-4.2323167l.010797-22.50370106c.00083-1.25169407-.407764-2.48245679-2.050443-2.48245679zm7.064847-.49984037c-.886116.76524974-1.740674 1.35718801-1.739014 2.60971933l.032389 21.83306089c.004983 4.2088737 2.416681 4.5220065 4.106696 4.5220065 4.23542 0 5.53013-3.0434167 6.637153-3.6537745-.005814.0083725-1.283083 3.0769068-1.737353 4.8719784h-21.647979c2.006426-1.2341117 1.862754-2.5963233 1.862754-4.6149416v-9.5572493c0-.8724182-.680158-1.0440552-.948402-1.0432179l-13.383927.0184196c-.617042 0-1.422603.0426999-1.422603 1.0432179v11.8806279c0 .5576109.08637 1.6209229 1.578733 2.2614219h-6.520056c1.232424-.2612231 1.738183-1.6192484 1.738183-2.7830308v-23.67669332c0-3.06937153-1.864415-3.13049104-2.212384-3.13049104-1.847806 0-2.368513 1.46854274-2.368513 3.30463978v21.76189438c0 2.8533601.520707 3.7400116 1.894312 4.523681h-4.897308c-.324715-.2561996.14035-2.5142725 0-4.2122227-.237516-.0351646.025745-.9452592-.474201 0-.599602 0-3.022927 5.3626091-9.636826 5.04529-2.369344-.1147038-8.849536-1.7398129-8.849536-9.7431197v-15.53523966c0-2.40208045-.416068-5.20687986-2.769633-5.20687986-1.612781 0-2.129336 1.95331254-2.129336 2.94462075v19.36316297c0 3.8639251-2.716483 8.1774555-7.424443 8.1774555-2.134319 0-6.396314-1.3873292-6.794942-5.2194387-.055642-.5358423 1.058855-.8171595 2.844375-2.7838681-.045676.8623712 0 1.0616375 0 1.7398129 0 2.9931815 1.437552 5.5677362 4.107527 5.5677362 2.243942 0 4.208014-2.1567652 4.208014-4.8711412v-20.58304141c-.060624-1.9181479.171909-3.53823353-2.052933-4.87281569h15.094705c.126232-.01339606.260769-.01339606.403611 0h-.403611c-1.52309.17247423-2.06622 2.32756488-2.124354 4.35036947-.015779.6957577 0 4.33446165 0 15.53858873 0 4.9046313 2.982234 9.3939849 7.152877 9.3939849 5.166382 0 8.641918-5.6020636 8.641918-9.7422824v-16.9376394c0-1.2257392-.827983-2.41882552-2.371835-2.61055658h7.950132 7.468457c-.727495.23443099-2.052933.14819388-2.052933 4.35036947v8.29969451c0 .4177895.299802.8699064.788951.8699064h13.862281c.853728 0 1.106192-.5567736 1.106192-1.2182039v-8.27457689c0-1.74567366-.742444-3.39338865-2.370174-4.00123473zm-81.817518 12.39721342c.310598 0 1.857772 1.7046482 1.857772 2.0462476 0 .3415995-1.547174 2.0462477-1.857772 2.0462477-.309767 0-1.856941-1.7046482-1.856941-2.0462477 0-.3415994 1.547174-2.0462476 1.856941-2.0462476zm-34.800204 3.239334c-.282361 5.6916496-3.5245334 11.1145409-8.7058639 13.7744954-7.3712917 3.7835489-16.0190227.5391913-19.3160065-7.2472667-.0797256-.1867076-.1552988-.3750896-.2275501-.5651462.8030689 4.9071431-2.8360704 9.6811629-8.712508 9.3404007 0 0-3.5012805-.7669243-3.5153986-.7677615l-6.3248938-.0862371c-1.9358361-.5969618-8.194292-14.1035362-10.5287558-14.2358222-.8678459 0-1.2648127.174986-1.2648127 1.3923526l-.0116267 10.011878c.0764037 2.2346298 1.3154717 2.4481294 2.6309433 2.9178287h-15.3671003c1.352843-.5123992 1.9798512-1.2022961 1.5388693-2.7528897-1.7165909-5.6255067-2.2713478-8.3457434-2.8560019-8.3716983h-7.7391919c-.3089365.6815244-2.8834075 7.6391014-2.8568323 8.4738432.0274056.8598594-.2042967 1.7130208 1.3055059 2.6507448h-20.246138c1.54800448-.9569808 2.50969396-1.9206597 2.50969396-4.7388551v-20.92464089c0-1.80930493-.10962263-4.12933453-2.31536292-4.51279665h7.81891748c-1.43173805.17079972-2.51799871 1.10684919-2.51633776 3.1112342l.0132876 21.97790584c.00166094 2.5058999.48997995 4.0012347 2.5279644 4.0012347h2.37017424c2.7231259 0 5.6380914-4.0606797 5.8116606-4.1996638-1.7805373 3.3247338-1.5762406 4.7589492-1.5762406 4.7589492 2.7106688.1272625 2.9232703-3.8990898 6.82567-14.476114.5680445-1.5656641 4.0917479-12.5604778 5.2137189-15.6574787.3371727.01423331 1.1452244 3.35906126 5.2535817 15.5720789 4.7552971 14.1780517 5.458709 14.6351921 6.9444279 14.6351921.5672141 0 1.4940236-.3215054 1.4940236-2.4447804l.0033219-23.99066334c0-.57351868-.8695068-2.87094243-2.3693438-3.30631428.8520669 0 7.9318621-.03265289 8.5314647 0 4.9836775.27378191 9.1642861 3.25775358 8.8985343 8.75432316-.2981403 6.19902536-5.8457101 5.82812196-5.8457101 7.30754906 0 .538354 7.6694321 11.847975 9.5180684 13.4672234.1735691-.1917311.8620325-2.6206036.5937892-7.0923749.8379488 1.9482891.8769811 6.9910672 6.1629514 7.6550093 2.6724669.3365759 5.0899782-2.53939 5.5292992-5.1541329 1.1892395-7.0513494-11.433973-9.0649442-12.3242417-16.70069665-.4268639-2.1668122.6577359-11.28701517 12.641483-7.30503727v6.26265659c-.4916409-3.7927586-3.2405115-6.43680533-5.8465405-6.43680533-2.5130159 0-4.921392 2.35686876-4.4247682 5.56689889.764867 4.94565677 8.5082113 7.67426607 11.6930811 12.17785297-1.1286149-6.8629674 2.1733517-14.05999896 8.4143677-17.26416832 7.3704612-3.78522332 16.0190227-.54086579 19.3160063 7.24475501.766528 1.81097941 1.244882 3.83545851 1.33042 5.72848881 0-7.46327817.011627-8.58268618.011627-14.3237338.126232.06949205 7.6304 8.57682541 15.641157 17.3964544 2.401732 2.6448839 5.135654 5.897614 6.162121 6.2618193v-19.55573128c0-1.84865585-.932623-3.44529838-2.842715-4.00207199l7.312329.03014113c-2.29128.83557904-2.435782 3.4645552-2.435782 5.51080289v25.68526455l-21.828192-23.99401237v17.44250327c0 2.047085.217584 4.6752239 2.508863 5.5099657l-7.3123277.0309784c1.9109217-.5567737 2.8435447-2.1534162 2.8435447-4.002072l-.009135-8.4277943-.05149-.28048z" fill="#fff" fill-rule="evenodd" mask="url(#a)"/></svg>