<svg height="46" viewBox="0 0 331 46" width="331" xmlns="http://www.w3.org/2000/svg" xmlns:xlink="http://www.w3.org/1999/xlink"><mask id="a" fill="#fff"><path d="m0 0h331v46h-331z" fill="#fff" fill-rule="evenodd"/></mask><path d="m135.182502 42.0781225c7.842979-4.0252127 10.587599-15.8151593 6.129853-26.3322586-4.455333-10.51831488-14.425242-15.78355088-22.26822-11.75833813-7.842979 4.02399704-10.585186 15.81394363-6.129853 26.33104283 4.456539 10.518315 14.427654 15.7847667 22.26822 11.7595539zm-98.0257723-30.4559437-4.3745024 13.6888842c-.1592483 1.0406469.2412853.919076 1.3644683.919076l7.3809174-.0012157c1.5936894.0449812-.427075-3.7176383-1.6648686-7.6164174-1.3717069-3.7455996-2.7060147-6.9903271-2.7060147-6.9903271zm29.2570491-9.43511817c-1.3994548 0-2.9786671.17749352-2.9834928 1.51720492l-.0530904 16.92510175c-.0024052.9871558.5634089 1.3482214 1.5526786 1.3482214.6430253 0 2.5696884.0230984 3.2127137 0 4.842596-.2796131 7.345931-4.8762091 7.345931-9.3488028 0-6.06030976-3.8195463-10.44172527-9.0747401-10.44172527zm241.1948182-.75130821c-3.421426 0-3.203063 1.96093874-3.206682 6.20497912l-.028954 29.82134366c-.150804 4.4045139 1.514065 6.3994925 3.235636 6.3994925 2.480412 0 2.96057-2.6599714 2.962983-6.1454093l.015685-32.67582857c.001205-1.81748507-.592357-3.60457741-2.978668-3.60457741zm10.26307-.72577832c-1.287257 1.1111581-2.52867 1.97066441-2.526257 3.78936519l.04705 31.70204561c.007239 6.1113695 3.510701 6.5660447 5.965779 6.5660447 6.152776 0 8.033594-4.4191025 9.641761-5.3053544-.008445.0121571-1.863929 4.4677308-2.523844 7.0742111h-31.44792c2.914727-1.7919552 2.706015-3.7699139 2.706015-6.7009885v-13.877319c0-1.2667689-.988063-1.5159893-1.377739-1.5147736l-19.44277.0267456c-.896375 0-2.066608.0620012-2.066608 1.5147736v17.2509117c0 .8096623.125468 2.3536128 2.293417 3.2836302h-9.471655c1.790337-.3793012 2.525051-2.3511813 2.525051-4.0410169v-34.37903697c0-4.45678947-2.708428-4.54553623-3.21392-4.54553623-2.684299 0-3.440729 2.13235372-3.440729 4.79840372v31.59871028c0 4.1431365.75643 5.4305725 2.751859 6.5684761h-7.114297c-.471713-.3720069.203886-3.6507743 0-6.1162323-.345038-.0510598.037399-1.3725356-.68887 0-.87104 0-4.391392 7.7866166-13.999373 7.3258629-3.441934-.1665522-12.85568-2.5262435-12.85568-14.1472065v-22.55748193c0-3.48786934-.60442-7.56049474-4.023433-7.56049474-2.34288 0-3.093277 2.83624927-3.093277 4.27564882v28.11570375c0 5.6104974-3.946221 11.8738306-10.785453 11.8738306-3.100516 0-9.291897-2.01443-9.870982-7.5787304-.08083-.7780538 1.538194-1.1865321 4.132011-4.0422327-.066354 1.2521804 0 1.5415191 0 2.5262435 0 4.3461599 2.088324 8.0844653 5.966985 8.0844653 3.259765 0 6.112963-3.1316665 6.112963-7.0729954v-29.88699188c-.088069-2.78518949.249731-5.13758655-2.982286-7.07542682h21.928008c.183377-.01945134.378818-.01945134.586323 0h-.586323c-2.212586.25043607-3.001589 3.37967123-3.086039 6.31682436-.022922 1.01025424 0 6.29372584 0 22.56234474 0 7.1216238 4.332278 13.6402558 10.390952 13.6402558 7.505179 0 12.554074-8.1343094 12.554074-14.1459908v-24.59379458c0-1.77979809-1.202807-3.51218352-3.445554-3.7905809h11.549121 10.849393c-1.05683.34039854-2.982286.21518051-2.982286 6.31682436v12.05132402c0 .6066389.43552 1.2631218 1.146105 1.2631218h20.137671c1.240206 0 1.60696-.8084466 1.60696-1.7688567v-12.01485283c0-2.53475342-1.078545-4.92726888-3.443141-5.80987367zm-118.855932 18.0010043c.451203 0 2.698776 2.4751837 2.698776 2.971193s-2.247573 2.9711929-2.698776 2.9711929c-.449998 0-2.69757-2.4751836-2.69757-2.9711929s2.247572-2.971193 2.69757-2.971193zm-50.554096 4.7035784c-.410185 8.2643903-5.120075 16.138538-12.646969 20.0008457-10.708242 5.4937893-23.270761.7829167-28.060274-10.5231778-.115817-.2711031-.225602-.5446376-.330561-.8206036 1.166614 7.1252709-4.119947 14.0572441-12.6566206 13.5624505 0 0-5.0862942-1.1135895-5.1068034-1.1148053l-9.1881442-.125218c-2.8121802-.8668006-11.9038103-20.4786194-15.2950752-20.6707014-1.2607157 0-1.8373875.2540832-1.8373875 2.0217242l-.01689 14.5374491c.1109912 3.2447275 1.9109796 3.5547334 3.8219591 4.2367461h-22.3237159c1.9652688-.7440139 2.8761208-1.7457582 2.2355083-3.9972514-2.4936836-8.1683493-3.2995765-12.1181881-4.1489007-12.155875h-11.2426886c-.4487906.9895871-4.1887128 11.0921296-4.1501071 12.3041915.039812 1.2485332-.296781 2.4873408 1.8965024 3.8489349h-29.4114716c2.24877899-1.3895554 3.64582088-2.7888366 3.64582088-6.8809133v-30.38300124c0-2.62714731-.1592483-5.99587716-3.36351708-6.55267191h11.3585055c-2.07987929.24800465-3.65788516 1.60716739-3.6554723 4.51757492l.01930282 31.91236323c.00241285 3.6386173.71179164 5.8098737 3.67236228 5.8098737h3.4431412c3.9558725 0 8.1904295-5.896189 8.4425727-6.0979967-2.5865785 4.8275807-2.2897975 6.9100903-2.2897975 6.9100903 3.9377761.1847878 4.2466212-5.6615571 9.9156194-21.0196099.8251957-2.2733759 5.9440633-18.23806753 7.5739455-22.7349754.4898092.02066705 1.6636622 4.87742481 7.631854 22.6109731 6.9079982 20.5868175 7.9298414 21.2505946 10.0881384 21.2505946.8239893 0 2.1703613-.4668322 2.1703613-3.5498705l.0048257-34.83492781c0-.83276072-1.2631285-4.16866642-3.4419348-4.80083514 1.2377936 0 11.5225795-.04741266 12.3936194 0 7.2397655.39753686 13.3129165 4.73032401 12.92686 12.71145405-.4331071 9.00111-8.4920362 8.4625509-8.4920362 10.6107089 0 .7817009 11.1413488 17.2034991 13.8268542 19.5546804.2521431-.2783973 1.2522707-3.8051694.8625949-10.2982715 1.2172843 2.828955 1.2739864 10.1511707 8.952891 11.115228 3.8822805.4887151 7.3941877-3.6872456 8.0323877-7.483905 1.727603-10.2387019-16.6100801-13.1624822-17.9033693-24.249749-.6201032-3.14625506.9554898-16.38897402 18.3642243-10.60706165v9.09350385c-.714205-5.50716208-4.7074763-9.34637134-8.4932427-9.34637134-3.6506465 0-7.1492834 3.42222105-6.4278403 8.08324964 1.1111188 7.1811935 12.359839 11.1431894 16.986485 17.6824885-1.639534-9.9651673 3.157218-20.4154025 12.223513-25.06792113 10.707036-5.49622073 23.270761-.78534806 28.060274 10.51953063 1.113532 2.6295787 1.808434 5.5691633 1.932696 8.3178815 0-10.8368307.01689-12.46223374.01689-20.79835087.183376.10090385 11.084646 12.45372377 22.721836 25.26000317 3.488986 3.840425 7.460542 8.5634547 8.951685 9.0922882v-28.3953169c0-2.68428564-1.354817-5.00264285-4.129598-5.81108938l10.622585.04376553c-3.32853 1.21327765-3.538449 5.03060415-3.538449 8.00179713v37.29552302l-31.709714-34.8397907v25.3268672c0 2.9724087.316084 6.7885195 3.644615 8.0005814l-10.622586.0449812c2.775988-.8084465 4.130805-3.1268037 4.130805-5.8110893l-.013271-12.2373276-.074798-.4072625z" fill="#a18839" fill-rule="evenodd" mask="url(#a)"/></svg>